<svg width="162" height="96" viewBox="0 0 162 96" fill="none" xmlns="http://www.w3.org/2000/svg">
<path d="M122 52C124.209 52 126 53.7909 126 56V68C126 70.2091 124.209 72 122 72C119.791 72 118 70.2091 118 68V56C118 53.7909 119.791 52 122 52Z" fill="#0AA5C7"/>
<path fill-rule="evenodd" clip-rule="evenodd" d="M98 24C98 10.7452 108.745 0 122 0C133.616 0 143.296 8.24784 145.52 19.2043C145.959 21.3693 144.561 23.4806 142.396 23.9201C140.231 24.3595 138.119 22.9607 137.68 20.7957C136.886 16.8847 134.663 13.4923 131.581 11.1849C128.911 9.18474 125.594 8 122 8C113.163 8 106 15.1634 106 24V32L138.965 32C142.185 31.9999 144.843 31.9999 147.007 32.1768C149.256 32.3605 151.323 32.7547 153.264 33.7439C156.274 35.2779 158.722 37.7256 160.256 40.7362C161.245 42.6775 161.64 44.7443 161.823 46.9927C162 49.1575 162 51.8149 162 55.0347V72.9653C162 76.1851 162 78.8425 161.823 81.0073C161.64 83.2557 161.245 85.3225 160.256 87.2638C158.722 90.2744 156.274 92.7221 153.264 94.2561C151.323 95.2453 149.256 95.6395 147.007 95.8232C144.843 96.0001 142.185 96.0001 138.965 96H105.035C101.815 96.0001 99.1575 96.0001 96.9927 95.8232C94.7443 95.6395 92.6775 95.2453 90.7362 94.2561C87.7256 92.7221 85.2779 90.2744 83.7439 87.2638C82.7547 85.3225 82.3605 83.2557 82.1768 81.0073C81.9999 78.8426 82 76.1852 82 72.9653V55.0348C82 51.815 81.9999 49.1574 82.1768 46.9927C82.3605 44.7443 82.7547 42.6775 83.7439 40.7362C85.2779 37.7256 87.7256 35.2779 90.7362 33.7439C92.6775 32.7547 94.7443 32.3605 96.9927 32.1768C97.3173 32.1502 97.653 32.1277 98 32.1085V24ZM105.2 40C101.774 40 99.4445 40.0031 97.6442 40.1502C95.8905 40.2935 94.9937 40.5532 94.3681 40.8719C92.8628 41.6389 91.6389 42.8628 90.872 44.3681C90.5532 44.9937 90.2935 45.8905 90.1502 47.6441C90.0031 49.4445 90 51.7737 90 55.2V72.8C90 76.2263 90.0031 78.5555 90.1502 80.3559C90.2935 82.1095 90.5532 83.0063 90.872 83.6319C91.6389 85.1372 92.8628 86.3611 94.3681 87.1281C94.9937 87.4468 95.8905 87.7065 97.6442 87.8498C99.4445 87.9969 101.774 88 105.2 88H138.8C142.226 88 144.555 87.9969 146.356 87.8498C148.11 87.7065 149.006 87.4468 149.632 87.1281C151.137 86.3611 152.361 85.1372 153.128 83.6319C153.447 83.0063 153.707 82.1095 153.85 80.3559C153.997 78.5555 154 76.2263 154 72.8V55.2C154 51.7737 153.997 49.4445 153.85 47.6441C153.707 45.8905 153.447 44.9937 153.128 44.3681C152.361 42.8628 151.137 41.6389 149.632 40.8719C149.006 40.5532 148.11 40.2935 146.356 40.1502C144.555 40.0031 142.226 40 138.8 40H105.2Z" fill="#0AA5C7"/>
<path fill-rule="evenodd" clip-rule="evenodd" d="M23.0348 16H23.2H102.8H102.965C106.185 16 108.843 15.9999 111.007 16.1768C113.256 16.3605 115.323 16.7547 117.264 17.7439C120.274 19.2779 122.722 21.7256 124.256 24.7362C125.245 26.6775 125.64 28.7443 125.823 30.9927C126 33.1575 126 35.8149 126 39.0347V39.2V40H118V39.2C118 35.7737 117.997 33.4445 117.85 31.6442C117.707 29.8905 117.447 28.9937 117.128 28.3681C116.361 26.8628 115.137 25.6389 113.632 24.872C113.006 24.5532 112.11 24.2935 110.356 24.1502C108.555 24.0031 106.226 24 102.8 24H23.2C19.7737 24 17.4445 24.0031 15.6442 24.1502C13.8905 24.2935 12.9937 24.5532 12.3681 24.872C10.8628 25.6389 9.63894 26.8628 8.87196 28.3681C8.5532 28.9937 8.29349 29.8905 8.15021 31.6442C8.00312 33.4445 8.00001 35.7737 8.00001 39.2V48.8C8.00001 52.2263 8.00312 54.5555 8.15021 56.3559C8.29349 58.1095 8.5532 59.0063 8.87196 59.6319C9.63894 61.1372 10.8628 62.3611 12.3681 63.1281C12.9937 63.4468 13.8905 63.7065 15.6442 63.8498C17.4445 63.9969 19.7737 64 23.2 64H89V72H23.2H23.0349C19.815 72.0001 17.1575 72.0001 14.9927 71.8232C12.7443 71.6395 10.6775 71.2453 8.73616 70.2561C5.72556 68.7221 3.27788 66.2744 1.7439 63.2639C0.754739 61.3225 0.360483 59.2557 0.176782 57.0073C-8.56576e-05 54.8425 -4.75078e-05 52.185 0 48.9652V48.8V39.2V39.0347C-4.75078e-05 35.8149 -8.56576e-05 33.1575 0.176782 30.9927C0.360483 28.7443 0.754739 26.6775 1.7439 24.7362C3.27788 21.7256 5.72556 19.2779 8.73616 17.7439C10.6775 16.7547 12.7443 16.3605 14.9927 16.1768C17.1575 15.9999 19.815 16 23.0348 16Z" fill="#0AA5C7"/>
<path d="M69.9817 58.338C68.1868 58.338 66.593 58.0361 65.2005 57.4324C63.816 56.8287 62.7294 56.0037 61.9406 54.9573C61.1598 53.9028 60.7734 52.7075 60.7815 51.3714C60.7734 50.333 60.9988 49.3792 61.4576 48.5099C61.9164 47.6405 62.5362 46.9161 63.317 46.3366C64.1058 45.749 64.9832 45.3747 65.9491 45.2137V45.0447C64.6773 44.7629 63.647 44.115 62.8582 43.1008C62.0774 42.0785 61.691 40.8993 61.6991 39.5631C61.691 38.2913 62.0452 37.1564 62.7616 36.1583C63.478 35.1602 64.46 34.3754 65.7076 33.8039C66.9552 33.2243 68.3799 32.9346 69.9817 32.9346C71.5674 32.9346 72.9801 33.2243 74.2197 33.8039C75.4673 34.3754 76.4493 35.1602 77.1657 36.1583C77.8901 37.1564 78.2523 38.2913 78.2523 39.5631C78.2523 40.8993 77.8539 42.0785 77.057 43.1008C76.2682 44.115 75.25 44.7629 74.0023 45.0447V45.2137C74.9682 45.3747 75.8376 45.749 76.6103 46.3366C77.3911 46.9161 78.0109 47.6405 78.4697 48.5099C78.9365 49.3792 79.17 50.333 79.17 51.3714C79.17 52.7075 78.7755 53.9028 77.9867 54.9573C77.1979 56.0037 76.1112 56.8287 74.7268 57.4324C73.3504 58.0361 71.7687 58.338 69.9817 58.338ZM69.9817 54.8849C70.9074 54.8849 71.7123 54.7279 72.3965 54.414C73.0807 54.092 73.612 53.6412 73.9903 53.0617C74.3686 52.4822 74.5618 51.8141 74.5698 51.0574C74.5618 50.2686 74.3565 49.5724 73.954 48.9687C73.5596 48.3569 73.0163 47.878 72.3241 47.5319C71.6399 47.1858 70.8591 47.0127 69.9817 47.0127C69.0963 47.0127 68.3075 47.1858 67.6153 47.5319C66.923 47.878 66.3757 48.3569 65.9732 48.9687C65.5788 49.5724 65.3856 50.2686 65.3937 51.0574C65.3856 51.8141 65.5708 52.4822 65.9491 53.0617C66.3274 53.6332 66.8586 54.0799 67.5428 54.4019C68.2351 54.7239 69.048 54.8849 69.9817 54.8849ZM69.9817 43.6199C70.7384 43.6199 71.4065 43.467 71.986 43.1611C72.5736 42.8553 73.0364 42.4287 73.3745 41.8813C73.7126 41.334 73.8856 40.7021 73.8937 39.9857C73.8856 39.2774 73.7166 38.6576 73.3866 38.1263C73.0566 37.587 72.5977 37.1725 72.0102 36.8827C71.4226 36.5849 70.7464 36.436 69.9817 36.436C69.201 36.436 68.5128 36.5849 67.9171 36.8827C67.3295 37.1725 66.8707 37.587 66.5407 38.1263C66.2187 38.6576 66.0618 39.2774 66.0698 39.9857C66.0618 40.7021 66.2227 41.334 66.5528 41.8813C66.8908 42.4206 67.3537 42.8472 67.9413 43.1611C68.5369 43.467 69.2171 43.6199 69.9817 43.6199Z" fill="#0AA5C7"/>
<path d="M53.3129 33.2725V57.9997H48.8335V37.6311H48.6887L42.9053 41.3257V37.2206L49.0509 33.2725H53.3129Z" fill="#0AA5C7"/>
<path d="M28.6646 58.338C27.4814 58.3299 26.3263 58.1247 25.1994 57.7222C24.0725 57.3117 23.0583 56.6476 22.1568 55.73C21.2553 54.8044 20.5389 53.5769 20.0076 52.0475C19.4764 50.5101 19.2148 48.6064 19.2228 46.3366C19.2228 44.2196 19.4482 42.3321 19.899 40.6739C20.3497 39.0158 20.9977 37.6152 21.8429 36.4722C22.688 35.3212 23.7063 34.4438 24.8976 33.8401C26.0969 33.2364 27.4371 32.9346 28.9181 32.9346C30.4717 32.9346 31.8481 33.2404 33.0474 33.8522C34.2548 34.4639 35.2288 35.301 35.9693 36.3635C36.7098 37.418 37.1686 38.6093 37.3457 39.9374H32.9387C32.7134 38.9876 32.2505 38.231 31.5503 37.6675C30.858 37.096 29.9806 36.8103 28.9181 36.8103C27.2037 36.8103 25.8836 37.5548 24.9579 39.0439C24.0403 40.5331 23.5775 42.5776 23.5694 45.1775H23.7385C24.1329 44.4691 24.644 43.8614 25.2718 43.3543C25.8997 42.8472 26.608 42.4568 27.3968 42.1832C28.1937 41.9014 29.0349 41.7606 29.9203 41.7606C31.3691 41.7606 32.6691 42.1067 33.8201 42.7989C34.9792 43.4912 35.8968 44.445 36.573 45.6604C37.2491 46.8678 37.5832 48.2523 37.5751 49.8138C37.5832 51.4398 37.2129 52.9007 36.4643 54.1966C35.7157 55.4845 34.6734 56.4987 33.3372 57.2393C32.001 57.9798 30.4435 58.346 28.6646 58.338ZM28.6404 54.7158C29.5178 54.7158 30.3026 54.5025 30.9949 54.0759C31.6871 53.6493 32.2344 53.0738 32.6369 52.3493C33.0394 51.6249 33.2366 50.8119 33.2285 49.9104C33.2366 49.025 33.0434 48.2241 32.649 47.5077C32.2626 46.7913 31.7273 46.2239 31.0431 45.8053C30.359 45.3867 29.5782 45.1775 28.7008 45.1775C28.0488 45.1775 27.4411 45.3022 26.8777 45.5518C26.3142 45.8013 25.8232 46.1474 25.4047 46.5901C24.9861 47.0248 24.6561 47.5319 24.4146 48.1114C24.1812 48.6829 24.0604 49.2947 24.0524 49.9466C24.0604 50.8079 24.2617 51.6008 24.6561 52.3252C25.0505 53.0496 25.5938 53.6292 26.286 54.0638C26.9783 54.4985 27.7631 54.7158 28.6404 54.7158Z" fill="#0AA5C7"/>
</svg>
